<mxfile host="app.diagrams.net" modified="2020-11-15T17:11:21.122Z" agent="5.0 (Windows NT 10.0; Win64; x64) AppleWebKit/537.36 (KHTML, like Gecko) Chrome/86.0.4240.198 Safari/537.36" etag="4yRoAsMj36F7VVsNMrgc" version="13.8.7" type="github">
  <diagram id="warRSGF8q6PO0cYHMHKe" name="Page-1">
    <mxGraphModel dx="1422" dy="762" grid="1" gridSize="10" guides="1" tooltips="1" connect="1" arrows="1" fold="1" page="0" pageScale="1" pageWidth="827" pageHeight="1169" math="0" shadow="0">
      <root>
        <mxCell id="0" />
        <mxCell id="1" parent="0" />
        <mxCell id="gKJqOl7EUtqoFNrCxqwu-1" value=":LoginSubmit&amp;nbsp;&lt;br&gt;Controller" style="shape=umlLifeline;perimeter=lifelinePerimeter;whiteSpace=wrap;html=1;container=1;collapsible=0;recursiveResize=0;outlineConnect=0;rounded=1;shadow=0;comic=0;labelBackgroundColor=none;strokeWidth=1;fontFamily=Verdana;fontSize=12;align=center;" parent="1" vertex="1">
          <mxGeometry x="318" y="90" width="100" height="580" as="geometry" />
        </mxCell>
        <mxCell id="gKJqOl7EUtqoFNrCxqwu-2" value="" style="html=1;points=[];perimeter=orthogonalPerimeter;rounded=0;shadow=0;comic=0;labelBackgroundColor=none;strokeWidth=1;fontFamily=Verdana;fontSize=12;align=center;" parent="gKJqOl7EUtqoFNrCxqwu-1" vertex="1">
          <mxGeometry x="45" y="100" width="10" height="400" as="geometry" />
        </mxCell>
        <mxCell id="gKJqOl7EUtqoFNrCxqwu-3" value=":DB_mgr" style="shape=umlLifeline;perimeter=lifelinePerimeter;whiteSpace=wrap;html=1;container=1;collapsible=0;recursiveResize=0;outlineConnect=0;rounded=1;shadow=0;comic=0;labelBackgroundColor=none;strokeWidth=1;fontFamily=Verdana;fontSize=12;align=center;" parent="1" vertex="1">
          <mxGeometry x="478" y="90" width="100" height="580" as="geometry" />
        </mxCell>
        <mxCell id="gKJqOl7EUtqoFNrCxqwu-4" value="" style="html=1;points=[];perimeter=orthogonalPerimeter;rounded=0;shadow=0;comic=0;labelBackgroundColor=none;strokeWidth=1;fontFamily=Verdana;fontSize=12;align=center;" parent="gKJqOl7EUtqoFNrCxqwu-3" vertex="1">
          <mxGeometry x="45" y="230" width="10" height="80" as="geometry" />
        </mxCell>
        <mxCell id="gKJqOl7EUtqoFNrCxqwu-8" value=":Login/main&lt;br&gt;GUI" style="shape=umlLifeline;perimeter=lifelinePerimeter;whiteSpace=wrap;html=1;container=1;collapsible=0;recursiveResize=0;outlineConnect=0;rounded=1;shadow=0;comic=0;labelBackgroundColor=none;strokeWidth=1;fontFamily=Verdana;fontSize=12;align=center;" parent="1" vertex="1">
          <mxGeometry x="178" y="90" width="100" height="580" as="geometry" />
        </mxCell>
        <mxCell id="gKJqOl7EUtqoFNrCxqwu-9" value="" style="html=1;points=[];perimeter=orthogonalPerimeter;rounded=0;shadow=0;comic=0;labelBackgroundColor=none;strokeWidth=1;fontFamily=Verdana;fontSize=12;align=center;" parent="gKJqOl7EUtqoFNrCxqwu-8" vertex="1">
          <mxGeometry x="45" y="100" width="10" height="440" as="geometry" />
        </mxCell>
        <mxCell id="gKJqOl7EUtqoFNrCxqwu-10" value="msg:=loginCheck&lt;br&gt;(N&lt;font face=&quot;helvetica&quot;&gt;etID&lt;/font&gt;)" style="html=1;verticalAlign=bottom;endArrow=block;labelBackgroundColor=none;fontFamily=Verdana;fontSize=11;edgeStyle=elbowEdgeStyle;elbow=vertical;exitX=1.048;exitY=0.045;exitDx=0;exitDy=0;exitPerimeter=0;" parent="1" source="gKJqOl7EUtqoFNrCxqwu-9" target="gKJqOl7EUtqoFNrCxqwu-2" edge="1">
          <mxGeometry relative="1" as="geometry">
            <mxPoint x="248" y="200.06" as="sourcePoint" />
            <mxPoint x="338" y="200.06" as="targetPoint" />
            <Array as="points">
              <mxPoint x="248" y="210" />
            </Array>
          </mxGeometry>
        </mxCell>
        <mxCell id="gKJqOl7EUtqoFNrCxqwu-11" value="s:=checkQuery(N&lt;font face=&quot;helvetica&quot;&gt;&lt;span style=&quot;background-color: rgb(255 , 255 , 255)&quot;&gt;etID&lt;/span&gt;&lt;/font&gt;)" style="html=1;verticalAlign=bottom;endArrow=block;labelBackgroundColor=none;fontFamily=Verdana;fontSize=12;edgeStyle=elbowEdgeStyle;elbow=vertical;" parent="1" source="gKJqOl7EUtqoFNrCxqwu-2" target="gKJqOl7EUtqoFNrCxqwu-4" edge="1">
          <mxGeometry x="0.0267" relative="1" as="geometry">
            <mxPoint x="374" y="260" as="sourcePoint" />
            <mxPoint x="520" y="230" as="targetPoint" />
            <mxPoint as="offset" />
            <Array as="points">
              <mxPoint x="390" y="360" />
              <mxPoint x="380" y="260" />
            </Array>
          </mxGeometry>
        </mxCell>
        <mxCell id="gKJqOl7EUtqoFNrCxqwu-12" value="" style="shape=umlLifeline;participant=umlActor;perimeter=lifelinePerimeter;whiteSpace=wrap;html=1;container=1;collapsible=0;recursiveResize=0;verticalAlign=top;spacingTop=36;outlineConnect=0;" parent="1" vertex="1">
          <mxGeometry x="90" y="130" width="25" height="490" as="geometry" />
        </mxCell>
        <mxCell id="gKJqOl7EUtqoFNrCxqwu-13" value="Student" style="text;html=1;strokeColor=none;fillColor=none;align=center;verticalAlign=middle;whiteSpace=wrap;rounded=0;" parent="1" vertex="1">
          <mxGeometry x="133" y="140" width="30" height="40" as="geometry" />
        </mxCell>
        <mxCell id="gKJqOl7EUtqoFNrCxqwu-14" value="&amp;lt;&amp;lt;NetID&amp;gt;&amp;gt;" style="html=1;verticalAlign=bottom;endArrow=block;entryX=-0.159;entryY=0.002;entryDx=0;entryDy=0;entryPerimeter=0;" parent="1" source="gKJqOl7EUtqoFNrCxqwu-12" target="gKJqOl7EUtqoFNrCxqwu-9" edge="1">
          <mxGeometry x="-0.0609" width="80" relative="1" as="geometry">
            <mxPoint x="133" y="190" as="sourcePoint" />
            <mxPoint x="193" y="190" as="targetPoint" />
            <mxPoint as="offset" />
          </mxGeometry>
        </mxCell>
        <mxCell id="gKJqOl7EUtqoFNrCxqwu-15" value="&amp;lt;&amp;lt;Able/Unable&lt;br&gt;to search&amp;gt;&amp;gt;" style="html=1;verticalAlign=bottom;endArrow=open;dashed=1;endSize=8;exitX=-0.067;exitY=0.955;exitDx=0;exitDy=0;exitPerimeter=0;" parent="1" source="gKJqOl7EUtqoFNrCxqwu-9" target="gKJqOl7EUtqoFNrCxqwu-12" edge="1">
          <mxGeometry x="0.028" y="-10" relative="1" as="geometry">
            <mxPoint x="213" y="610" as="sourcePoint" />
            <mxPoint x="133" y="610" as="targetPoint" />
            <mxPoint as="offset" />
          </mxGeometry>
        </mxCell>
        <mxCell id="gKJqOl7EUtqoFNrCxqwu-24" value="Student login" style="text;align=center;fontStyle=1;verticalAlign=middle;spacingLeft=3;spacingRight=3;strokeColor=none;rotatable=0;points=[[0,0.5],[1,0.5]];portConstraint=eastwest;fontSize=18;" parent="1" vertex="1">
          <mxGeometry x="360" y="40" width="100" height="26" as="geometry" />
        </mxCell>
        <mxCell id="aRrgK8hmprxJ4PgmAD2a-1" value="&amp;lt;&amp;lt;return true/false&amp;gt;&amp;gt;" style="html=1;verticalAlign=bottom;endArrow=open;dashed=1;endSize=8;entryX=0.978;entryY=0.725;entryDx=0;entryDy=0;entryPerimeter=0;" edge="1" parent="1" source="gKJqOl7EUtqoFNrCxqwu-2" target="gKJqOl7EUtqoFNrCxqwu-9">
          <mxGeometry x="0.028" y="-10" relative="1" as="geometry">
            <mxPoint x="359.99999999999994" y="510.00000000000006" as="sourcePoint" />
            <mxPoint x="239.9803448275863" y="510.00000000000006" as="targetPoint" />
            <mxPoint as="offset" />
          </mxGeometry>
        </mxCell>
      </root>
    </mxGraphModel>
  </diagram>
</mxfile>
